# This file uses centimeters as units for non-parametric coordinates.

mtllib Button3.mtl
g default
v 2.108161 -0.831944 0.000000
v -1.599343 -0.834086 0.000000
v 2.522364 -0.284097 0.000000
v -2.039323 -0.311211 0.000000
v 2.378109 0.345882 -0.000000
v -2.039000 0.821002 0.000000
v 1.719561 0.820771 -0.000000
vt 0.098188 0.090597
vt 0.098188 0.367031
vt 0.103778 0.668836
vt 0.100805 0.905433
vt 0.899659 0.905496
vt 0.896685 0.089571
vt 0.896685 0.354041
vn -0.000000 0.000000 1.000000
vn 0.000000 -0.000000 1.000000
vn 0.000000 -0.000000 1.000000
vn 0.000000 -0.000000 1.000000
vn 0.000000 -0.000000 1.000000
vn 0.000000 0.000000 1.000000
vn 0.000000 0.000000 1.000000
s 1
g pPlane1
usemtl lambert4SG
f 1/1/1 3/2/2 2/6/3
f 2/6/3 3/2/2 5/3/4 4/7/5
f 4/7/5 5/3/4 7/4/6 6/5/7
