# This file uses centimeters as units for non-parametric coordinates.

mtllib Cursor.mtl
g default
v -0.500000 -0.000000 0.500000
v -0.450000 -0.000000 0.500000
v -0.400000 -0.000000 0.500000
v -0.350000 -0.000000 0.500000
v -0.300000 -0.000000 0.500000
v -0.250000 -0.000000 0.500000
v -0.200000 -0.000000 0.500000
v -0.150000 -0.000000 0.500000
v -0.100000 -0.000000 0.500000
v -0.050000 -0.000000 0.500000
v 0.000000 -0.000000 0.500000
v 0.050000 -0.000000 0.500000
v 0.100000 -0.000000 0.500000
v 0.150000 -0.000000 0.500000
v 0.200000 -0.000000 0.500000
v 0.250000 -0.000000 0.500000
v 0.300000 -0.000000 0.500000
v 0.350000 -0.000000 0.500000
v 0.400000 -0.000000 0.500000
v 0.450000 -0.000000 0.500000
v 0.500000 -0.000000 0.500000
v -0.500000 -0.000000 0.450000
v -0.450000 -0.000000 0.450000
v -0.400000 -0.000000 0.450000
v -0.350000 -0.000000 0.450000
v -0.300000 -0.000000 0.450000
v -0.250000 -0.000000 0.450000
v -0.200000 -0.000000 0.450000
v -0.150000 -0.000000 0.450000
v -0.100000 -0.000000 0.450000
v -0.050000 -0.000000 0.450000
v 0.000000 -0.000000 0.450000
v 0.050000 -0.000000 0.450000
v 0.100000 -0.000000 0.450000
v 0.150000 -0.000000 0.450000
v 0.200000 -0.000000 0.450000
v 0.250000 -0.000000 0.450000
v 0.300000 -0.000000 0.450000
v 0.350000 -0.000000 0.450000
v 0.400000 -0.000000 0.450000
v 0.450000 -0.000000 0.450000
v 0.500000 -0.000000 0.450000
v -0.500000 -0.000000 0.400000
v -0.450000 -0.000000 0.400000
v -0.400000 -0.000000 0.400000
v -0.350000 -0.000000 0.400000
v -0.300000 -0.000000 0.400000
v -0.250000 -0.000000 0.400000
v -0.200000 -0.000000 0.400000
v -0.150000 -0.000000 0.400000
v -0.100000 -0.000000 0.400000
v -0.050000 -0.000000 0.400000
v 0.000000 -0.000000 0.400000
v 0.050000 -0.000000 0.400000
v 0.100000 -0.000000 0.400000
v 0.150000 -0.000000 0.400000
v 0.200000 -0.000000 0.400000
v 0.250000 -0.000000 0.400000
v 0.300000 -0.000000 0.400000
v 0.350000 -0.000000 0.400000
v 0.400000 -0.000000 0.400000
v -0.500000 -0.000000 0.350000
v -0.450000 -0.000000 0.350000
v -0.400000 -0.000000 0.350000
v -0.350000 -0.000000 0.350000
v -0.300000 -0.000000 0.350000
v -0.250000 -0.000000 0.350000
v -0.200000 -0.000000 0.350000
v -0.150000 -0.000000 0.350000
v -0.100000 -0.000000 0.350000
v -0.050000 -0.000000 0.350000
v 0.000000 -0.000000 0.350000
v 0.050000 -0.000000 0.350000
v 0.100000 -0.000000 0.350000
v 0.150000 -0.000000 0.350000
v 0.200000 -0.000000 0.350000
v 0.250000 -0.000000 0.350000
v 0.300000 -0.000000 0.350000
v -0.500000 -0.000000 0.300000
v -0.450000 -0.000000 0.300000
v -0.400000 -0.000000 0.300000
v -0.350000 -0.000000 0.300000
v -0.300000 -0.000000 0.300000
v -0.250000 -0.000000 0.300000
v -0.200000 -0.000000 0.300000
v -0.150000 -0.000000 0.300000
v -0.100000 -0.000000 0.300000
v -0.050000 -0.000000 0.300000
v 0.000000 -0.000000 0.300000
v 0.050000 -0.000000 0.300000
v 0.100000 -0.000000 0.300000
v 0.150000 -0.000000 0.300000
v -0.500000 -0.000000 0.250000
v -0.450000 -0.000000 0.250000
v -0.400000 -0.000000 0.250000
v -0.350000 -0.000000 0.250000
v -0.300000 -0.000000 0.250000
v -0.250000 -0.000000 0.250000
v -0.200000 -0.000000 0.250000
v -0.150000 -0.000000 0.250000
v -0.100000 -0.000000 0.250000
v -0.050000 -0.000000 0.250000
v 0.000000 -0.000000 0.250000
v -0.500000 -0.000000 0.200000
v -0.450000 -0.000000 0.200000
v -0.400000 -0.000000 0.200000
v -0.350000 -0.000000 0.200000
v -0.300000 -0.000000 0.200000
v -0.250000 -0.000000 0.200000
v -0.200000 -0.000000 0.200000
v -0.150000 -0.000000 0.200000
v -0.100000 -0.000000 0.200000
v -0.050000 -0.000000 0.200000
v -0.500000 -0.000000 0.150000
v -0.450000 -0.000000 0.150000
v -0.400000 -0.000000 0.150000
v -0.350000 -0.000000 0.150000
v -0.300000 -0.000000 0.150000
v -0.250000 -0.000000 0.150000
v -0.200000 -0.000000 0.150000
v -0.150000 -0.000000 0.150000
v -0.100000 -0.000000 0.150000
v -0.050000 -0.000000 0.150000
v -0.500000 -0.000000 0.100000
v -0.450000 -0.000000 0.100000
v -0.400000 -0.000000 0.100000
v -0.350000 -0.000000 0.100000
v -0.300000 -0.000000 0.100000
v -0.250000 -0.000000 0.100000
v -0.200000 -0.000000 0.100000
v -0.150000 -0.000000 0.100000
v -0.100000 -0.000000 0.100000
v -0.050000 -0.000000 0.100000
v -0.500000 -0.000000 0.050000
v -0.450000 -0.000000 0.050000
v -0.400000 -0.000000 0.050000
v -0.350000 -0.000000 0.050000
v -0.300000 -0.000000 0.050000
v -0.250000 -0.000000 0.050000
v -0.200000 -0.000000 0.050000
v -0.150000 -0.000000 0.050000
v -0.100000 -0.000000 0.050000
v -0.050000 -0.000000 0.050000
v -0.500000 0.000000 0.000000
v -0.450000 0.000000 0.000000
v -0.400000 0.000000 0.000000
v -0.350000 0.000000 0.000000
v -0.300000 0.000000 0.000000
v -0.250000 0.000000 0.000000
v -0.500000 0.000000 -0.050000
v -0.450000 0.000000 -0.050000
v -0.400000 0.000000 -0.050000
v -0.350000 0.000000 -0.050000
v -0.300000 0.000000 -0.050000
v -0.500000 0.000000 -0.100000
v -0.450000 0.000000 -0.100000
v -0.400000 0.000000 -0.100000
v -0.350000 0.000000 -0.100000
v -0.300000 0.000000 -0.100000
v -0.500000 0.000000 -0.150000
v -0.450000 0.000000 -0.150000
v -0.400000 0.000000 -0.150000
v -0.350000 0.000000 -0.150000
v -0.300000 0.000000 -0.150000
v -0.500000 0.000000 -0.200000
v -0.450000 0.000000 -0.200000
v -0.400000 0.000000 -0.200000
v -0.350000 0.000000 -0.200000
v -0.500000 0.000000 -0.250000
v -0.450000 0.000000 -0.250000
v -0.400000 0.000000 -0.250000
v -0.350000 0.000000 -0.250000
v -0.500000 0.000000 -0.300000
v -0.450000 0.000000 -0.300000
v -0.400000 0.000000 -0.300000
v -0.350000 0.000000 -0.300000
v -0.500000 0.000000 -0.350000
v -0.450000 0.000000 -0.350000
v -0.400000 0.000000 -0.350000
v -0.500000 0.000000 -0.400000
v -0.450000 0.000000 -0.400000
v -0.400000 0.000000 -0.400000
v -0.500000 0.000000 -0.450000
v -0.450000 0.000000 -0.450000
v -0.500000 0.000000 -0.500000
v -0.450000 0.000000 -0.500000
vt 0.000000 0.000000
vt 0.050000 0.000000
vt 0.100000 0.000000
vt 0.150000 0.000000
vt 0.200000 0.000000
vt 0.250000 0.000000
vt 0.300000 0.000000
vt 0.350000 0.000000
vt 0.400000 0.000000
vt 0.450000 0.000000
vt 0.500000 0.000000
vt 0.550000 0.000000
vt 0.600000 0.000000
vt 0.650000 0.000000
vt 0.700000 0.000000
vt 0.750000 0.000000
vt 0.800000 0.000000
vt 0.850000 0.000000
vt 0.900000 0.000000
vt 0.950000 0.000000
vt 1.000000 0.000000
vt 0.000000 0.050000
vt 0.050000 0.050000
vt 0.100000 0.050000
vt 0.150000 0.050000
vt 0.200000 0.050000
vt 0.250000 0.050000
vt 0.300000 0.050000
vt 0.350000 0.050000
vt 0.400000 0.050000
vt 0.450000 0.050000
vt 0.500000 0.050000
vt 0.550000 0.050000
vt 0.600000 0.050000
vt 0.650000 0.050000
vt 0.700000 0.050000
vt 0.750000 0.050000
vt 0.800000 0.050000
vt 0.850000 0.050000
vt 0.900000 0.050000
vt 0.950000 0.050000
vt 1.000000 0.050000
vt 0.000000 0.100000
vt 0.050000 0.100000
vt 0.259112 0.251351
vt 0.309112 0.251351
vt 0.359112 0.251351
vt 0.409112 0.251351
vt 0.459112 0.251351
vt 0.509112 0.251351
vt 0.559112 0.251351
vt 0.609112 0.251351
vt 0.659112 0.251351
vt 0.709112 0.251351
vt 0.759112 0.251351
vt 0.809112 0.251351
vt 0.859112 0.251351
vt 0.909112 0.251351
vt 0.800000 0.100000
vt 0.850000 0.100000
vt 0.900000 0.100000
vt 0.000000 0.150000
vt 0.050000 0.150000
vt 0.259112 0.301351
vt 0.309112 0.301351
vt 0.359112 0.301351
vt 0.409112 0.301351
vt 0.459112 0.301351
vt 0.509112 0.301351
vt 0.559112 0.301351
vt 0.609112 0.301351
vt 0.659112 0.301351
vt 0.709112 0.301351
vt 0.759112 0.301351
vt 0.809112 0.301351
vt 0.859112 0.301351
vt 0.909112 0.301351
vt 0.959112 0.301351
vt 0.000000 0.200000
vt 0.050000 0.200000
vt 0.259112 0.351351
vt 0.309112 0.351351
vt 0.359112 0.351351
vt 0.409112 0.351351
vt 0.459112 0.351351
vt 0.509112 0.351351
vt 0.559112 0.351351
vt 0.609112 0.351351
vt 0.659112 0.351351
vt 0.709112 0.351351
vt 0.759112 0.351351
vt 0.809112 0.351351
vt 0.000000 0.250000
vt 0.050000 0.250000
vt 0.259112 0.401351
vt 0.309112 0.401351
vt 0.359112 0.401351
vt 0.409112 0.401351
vt 0.459112 0.401351
vt 0.509112 0.401351
vt 0.559112 0.401351
vt 0.609112 0.401351
vt 0.659112 0.401351
vt 0.000000 0.300000
vt 0.050000 0.300000
vt 0.259112 0.451351
vt 0.309112 0.451351
vt 0.359112 0.451351
vt 0.409112 0.451351
vt 0.459112 0.451351
vt 0.509112 0.451351
vt 0.559112 0.451351
vt 0.609112 0.451351
vt 0.000000 0.350000
vt 0.050000 0.350000
vt 0.259112 0.501351
vt 0.309112 0.501351
vt 0.359112 0.501351
vt 0.409112 0.501351
vt 0.459112 0.501351
vt 0.509112 0.501351
vt 0.559112 0.501351
vt 0.609112 0.501351
vt 0.000000 0.400000
vt 0.050000 0.400000
vt 0.259112 0.551351
vt 0.309112 0.551351
vt 0.359112 0.551351
vt 0.409112 0.551351
vt 0.459112 0.551351
vt 0.509112 0.551351
vt 0.559112 0.551351
vt 0.609112 0.551351
vt 0.000000 0.450000
vt 0.050000 0.450000
vt 0.259112 0.601351
vt 0.309112 0.601351
vt 0.359112 0.601351
vt 0.409112 0.601351
vt 0.459112 0.601351
vt 0.509112 0.601351
vt 0.559112 0.601351
vt 0.609112 0.601351
vt 0.000000 0.500000
vt 0.050000 0.500000
vt 0.259112 0.651351
vt 0.309112 0.651351
vt 0.359112 0.651351
vt 0.409112 0.651351
vt 0.000000 0.550000
vt 0.050000 0.550000
vt 0.259112 0.701351
vt 0.309112 0.701351
vt 0.359112 0.701351
vt 0.000000 0.600000
vt 0.050000 0.600000
vt 0.259112 0.751351
vt 0.309112 0.751351
vt 0.359112 0.751351
vt 0.000000 0.650000
vt 0.050000 0.650000
vt 0.259112 0.801351
vt 0.309112 0.801351
vt 0.359112 0.801351
vt 0.000000 0.700000
vt 0.050000 0.700000
vt 0.259112 0.851351
vt 0.309112 0.851351
vt 0.000000 0.750000
vt 0.050000 0.750000
vt 0.259112 0.901351
vt 0.309112 0.901351
vt 0.000000 0.800000
vt 0.050000 0.800000
vt 0.259112 0.951351
vt 0.309112 0.951351
vt 0.000000 0.850000
vt 0.050000 0.850000
vt 0.100000 0.850000
vt 0.000000 0.900000
vt 0.050000 0.900000
vt 0.100000 0.900000
vt 0.000000 0.950000
vt 0.050000 0.950000
vt 0.000000 1.000000
vt 0.050000 1.000000
vt 0.100000 0.750000
vt 0.100000 0.800000
vt 0.100000 0.700000
vt 0.100000 0.650000
vt 0.100000 0.600000
vt 0.100000 0.550000
vt 0.100000 0.500000
vt 0.100000 0.450000
vt 0.100000 0.400000
vt 0.100000 0.350000
vt 0.100000 0.300000
vt 0.100000 0.250000
vt 0.100000 0.200000
vt 0.100000 0.150000
vt 0.959112 0.251351
vt 0.750000 0.100000
vt 0.700000 0.100000
vt 0.650000 0.100000
vt 0.600000 0.100000
vt 0.550000 0.100000
vt 0.500000 0.100000
vt 0.450000 0.100000
vt 0.400000 0.100000
vt 0.350000 0.100000
vt 0.300000 0.100000
vt 0.250000 0.100000
vt 0.200000 0.100000
vt 0.150000 0.100000
vt 0.100000 0.100000
vn 0.000000 1.000000 0.000000
vn 0.000000 1.000000 0.000000
vn 0.000000 1.000000 0.000000
vn 0.000000 1.000000 0.000000
vn 0.000000 1.000000 0.000000
vn 0.000000 1.000000 0.000000
vn 0.000000 1.000000 0.000000
vn 0.000000 1.000000 0.000000
vn 0.000000 1.000000 0.000000
vn 0.000000 1.000000 0.000000
vn 0.000000 1.000000 0.000000
vn 0.000000 1.000000 0.000000
vn 0.000000 1.000000 0.000000
vn 0.000000 1.000000 0.000000
vn 0.000000 1.000000 0.000000
vn 0.000000 1.000000 0.000000
vn 0.000000 1.000000 0.000000
vn 0.000000 1.000000 0.000000
vn 0.000000 1.000000 0.000000
vn 0.000000 1.000000 0.000000
vn 0.000000 1.000000 0.000000
vn 0.000000 1.000000 0.000000
vn 0.000000 1.000000 0.000000
vn 0.000000 1.000000 0.000000
vn 0.000000 1.000000 0.000000
vn 0.000000 1.000000 0.000000
vn 0.000000 1.000000 0.000000
vn 0.000000 1.000000 0.000000
vn 0.000000 1.000000 0.000000
vn 0.000000 1.000000 0.000000
vn 0.000000 1.000000 0.000000
vn 0.000000 1.000000 0.000000
vn 0.000000 1.000000 0.000000
vn 0.000000 1.000000 0.000000
vn 0.000000 1.000000 0.000000
vn 0.000000 1.000000 0.000000
vn 0.000000 1.000000 0.000000
vn 0.000000 1.000000 0.000000
vn 0.000000 1.000000 0.000000
vn 0.000000 1.000000 0.000000
vn 0.000000 1.000000 0.000000
vn 0.000000 1.000000 0.000000
vn 0.000000 1.000000 0.000000
vn 0.000000 1.000000 0.000000
vn 0.000000 1.000000 0.000000
vn 0.000000 1.000000 0.000000
vn 0.000000 1.000000 0.000000
vn 0.000000 1.000000 0.000000
vn 0.000000 1.000000 0.000000
vn 0.000000 1.000000 0.000000
vn 0.000000 1.000000 0.000000
vn 0.000000 1.000000 0.000000
vn 0.000000 1.000000 0.000000
vn 0.000000 1.000000 0.000000
vn 0.000000 1.000000 0.000000
vn 0.000000 1.000000 0.000000
vn 0.000000 1.000000 0.000000
vn 0.000000 1.000000 0.000000
vn 0.000000 1.000000 0.000000
vn 0.000000 1.000000 0.000000
vn 0.000000 1.000000 0.000000
vn 0.000000 1.000000 0.000000
vn 0.000000 1.000000 0.000000
vn 0.000000 1.000000 0.000000
vn 0.000000 1.000000 0.000000
vn 0.000000 1.000000 0.000000
vn 0.000000 1.000000 0.000000
vn 0.000000 1.000000 0.000000
vn 0.000000 1.000000 0.000000
vn 0.000000 1.000000 0.000000
vn 0.000000 1.000000 0.000000
vn 0.000000 1.000000 0.000000
vn 0.000000 1.000000 0.000000
vn 0.000000 1.000000 0.000000
vn 0.000000 1.000000 0.000000
vn 0.000000 1.000000 0.000000
vn 0.000000 1.000000 0.000000
vn 0.000000 1.000000 0.000000
vn 0.000000 1.000000 0.000000
vn 0.000000 1.000000 0.000000
vn 0.000000 1.000000 0.000000
vn 0.000000 1.000000 0.000000
vn 0.000000 1.000000 0.000000
vn 0.000000 1.000000 0.000000
vn 0.000000 1.000000 0.000000
vn 0.000000 1.000000 0.000000
vn 0.000000 1.000000 0.000000
vn 0.000000 1.000000 0.000000
vn 0.000000 1.000000 0.000000
vn 0.000000 1.000000 0.000000
vn 0.000000 1.000000 0.000000
vn 0.000000 1.000000 0.000000
vn 0.000000 1.000000 0.000000
vn 0.000000 1.000000 0.000000
vn 0.000000 1.000000 0.000000
vn 0.000000 1.000000 0.000000
vn 0.000000 1.000000 0.000000
vn 0.000000 1.000000 0.000000
vn 0.000000 1.000000 0.000000
vn 0.000000 1.000000 0.000000
vn 0.000000 1.000000 0.000000
vn 0.000000 1.000000 0.000000
vn 0.000000 1.000000 0.000000
vn 0.000000 1.000000 0.000000
vn 0.000000 1.000000 0.000000
vn 0.000000 1.000000 0.000000
vn 0.000000 1.000000 0.000000
vn 0.000000 1.000000 0.000000
vn 0.000000 1.000000 0.000000
vn 0.000000 1.000000 0.000000
vn 0.000000 1.000000 0.000000
vn 0.000000 1.000000 0.000000
vn 0.000000 1.000000 0.000000
vn 0.000000 1.000000 0.000000
vn 0.000000 1.000000 0.000000
vn 0.000000 1.000000 0.000000
vn 0.000000 1.000000 0.000000
vn 0.000000 1.000000 0.000000
vn 0.000000 1.000000 0.000000
vn 0.000000 1.000000 0.000000
vn 0.000000 1.000000 0.000000
vn 0.000000 1.000000 0.000000
vn 0.000000 1.000000 0.000000
vn 0.000000 1.000000 0.000000
vn 0.000000 1.000000 0.000000
vn 0.000000 1.000000 0.000000
vn 0.000000 1.000000 0.000000
vn 0.000000 1.000000 0.000000
vn 0.000000 1.000000 0.000000
vn 0.000000 1.000000 0.000000
vn 0.000000 1.000000 0.000000
vn 0.000000 1.000000 0.000000
vn 0.000000 1.000000 0.000000
vn 0.000000 1.000000 0.000000
vn 0.000000 1.000000 0.000000
vn 0.000000 1.000000 0.000000
vn 0.000000 1.000000 0.000000
vn 0.000000 1.000000 0.000000
vn 0.000000 1.000000 0.000000
vn 0.000000 1.000000 0.000000
vn 0.000000 1.000000 0.000000
vn 0.000000 1.000000 0.000000
vn 0.000000 1.000000 0.000000
vn 0.000000 1.000000 0.000000
vn 0.000000 1.000000 0.000000
vn 0.000000 1.000000 0.000000
vn 0.000000 1.000000 0.000000
vn 0.000000 1.000000 0.000000
vn 0.000000 1.000000 0.000000
vn 0.000000 1.000000 0.000000
vn 0.000000 1.000000 0.000000
vn 0.000000 1.000000 0.000000
vn 0.000000 1.000000 0.000000
vn 0.000000 1.000000 0.000000
vn 0.000000 1.000000 0.000000
vn 0.000000 1.000000 0.000000
vn 0.000000 1.000000 0.000000
vn 0.000000 1.000000 0.000000
vn 0.000000 1.000000 0.000000
vn 0.000000 1.000000 0.000000
vn 0.000000 1.000000 0.000000
vn 0.000000 1.000000 0.000000
vn 0.000000 1.000000 0.000000
vn 0.000000 1.000000 0.000000
vn 0.000000 1.000000 0.000000
vn 0.000000 1.000000 0.000000
vn 0.000000 1.000000 0.000000
vn 0.000000 1.000000 0.000000
vn 0.000000 1.000000 0.000000
vn 0.000000 1.000000 0.000000
vn 0.000000 1.000000 0.000000
vn 0.000000 1.000000 0.000000
vn 0.000000 1.000000 0.000000
vn 0.000000 1.000000 0.000000
vn 0.000000 1.000000 0.000000
vn 0.000000 1.000000 0.000000
vn 0.000000 1.000000 0.000000
vn 0.000000 1.000000 0.000000
vn 0.000000 1.000000 0.000000
vn 0.000000 1.000000 0.000000
vn 0.000000 1.000000 0.000000
vn 0.000000 1.000000 0.000000
vn 0.000000 1.000000 0.000000
vn 0.000000 1.000000 0.000000
vn 0.000000 1.000000 0.000000
vn 0.000000 1.000000 0.000000
s 1
g pPlane1
usemtl phong1SG
f 1/1/1 2/2/2 23/23/3 22/22/4
f 2/2/2 3/3/5 24/24/6 23/23/3
f 3/3/5 4/4/7 25/25/8 24/24/6
f 4/4/7 5/5/9 26/26/10 25/25/8
f 5/5/9 6/6/11 27/27/12 26/26/10
f 6/6/11 7/7/13 28/28/14 27/27/12
f 7/7/13 8/8/15 29/29/16 28/28/14
f 8/8/15 9/9/17 30/30/18 29/29/16
f 9/9/17 10/10/19 31/31/20 30/30/18
f 10/10/19 11/11/21 32/32/22 31/31/20
f 11/11/21 12/12/23 33/33/24 32/32/22
f 12/12/23 13/13/25 34/34/26 33/33/24
f 13/13/25 14/14/27 35/35/28 34/34/26
f 14/14/27 15/15/29 36/36/30 35/35/28
f 15/15/29 16/16/31 37/37/32 36/36/30
f 16/16/31 17/17/33 38/38/34 37/37/32
f 17/17/33 18/18/35 39/39/36 38/38/34
f 18/18/35 19/19/37 40/40/38 39/39/36
f 19/19/37 20/20/39 41/41/40 40/40/38
f 20/20/39 21/21/41 42/42/42 41/41/40
f 22/22/4 23/23/3 44/44/43 43/43/44
f 23/23/3 24/24/6 45/215/45 44/44/43
f 24/24/6 25/25/8 46/214/46 45/215/45
f 25/25/8 26/26/10 47/213/47 46/214/46
f 26/26/10 27/27/12 48/212/48 47/213/47
f 27/27/12 28/28/14 49/211/49 48/212/48
f 28/28/14 29/29/16 50/210/50 49/211/49
f 29/29/16 30/30/18 51/209/51 50/210/50
f 30/30/18 31/31/20 52/208/52 51/209/51
f 31/31/20 32/32/22 53/207/53 52/208/52
f 32/32/22 33/33/24 54/206/54 53/207/53
f 33/33/24 34/34/26 55/205/55 54/206/54
f 34/34/26 35/35/28 56/204/56 55/205/55
f 35/35/28 36/36/30 57/203/57 56/204/56
f 36/36/30 37/37/32 58/202/58 57/203/57
f 37/37/32 38/38/34 59/59/59 58/202/58
f 38/38/34 39/39/36 60/60/60 59/59/59
f 39/39/36 40/40/38 61/61/61 60/60/60
f 43/43/44 44/44/43 63/63/62 62/62/63
f 44/44/43 45/215/45 64/200/64 63/63/62
f 45/45/45 46/46/46 65/65/65 64/64/64
f 46/46/46 47/47/47 66/66/66 65/65/65
f 47/47/47 48/48/48 67/67/67 66/66/66
f 48/48/48 49/49/49 68/68/68 67/67/67
f 49/49/49 50/50/50 69/69/69 68/68/68
f 50/50/50 51/51/51 70/70/70 69/69/69
f 51/51/51 52/52/52 71/71/71 70/70/70
f 52/52/52 53/53/53 72/72/72 71/71/71
f 53/53/53 54/54/54 73/73/73 72/72/72
f 54/54/54 55/55/55 74/74/74 73/73/73
f 55/55/55 56/56/56 75/75/75 74/74/74
f 56/56/56 57/57/57 76/76/76 75/75/75
f 57/57/57 58/58/58 77/77/77 76/76/76
f 58/58/58 59/201/59 78/78/78 77/77/77
f 62/62/63 63/63/62 80/80/79 79/79/80
f 63/63/62 64/200/64 81/199/81 80/80/79
f 64/64/64 65/65/65 82/82/82 81/81/81
f 65/65/65 66/66/66 83/83/83 82/82/82
f 66/66/66 67/67/67 84/84/84 83/83/83
f 67/67/67 68/68/68 85/85/85 84/84/84
f 68/68/68 69/69/69 86/86/86 85/85/85
f 69/69/69 70/70/70 87/87/87 86/86/86
f 70/70/70 71/71/71 88/88/88 87/87/87
f 71/71/71 72/72/72 89/89/89 88/88/88
f 72/72/72 73/73/73 90/90/90 89/89/89
f 73/73/73 74/74/74 91/91/91 90/90/90
f 74/74/74 75/75/75 92/92/92 91/91/91
f 79/79/80 80/80/79 94/94/93 93/93/94
f 80/80/79 81/199/81 95/198/95 94/94/93
f 81/81/81 82/82/82 96/96/96 95/95/95
f 82/82/82 83/83/83 97/97/97 96/96/96
f 83/83/83 84/84/84 98/98/98 97/97/97
f 84/84/84 85/85/85 99/99/99 98/98/98
f 85/85/85 86/86/86 100/100/100 99/99/99
f 86/86/86 87/87/87 101/101/101 100/100/100
f 87/87/87 88/88/88 102/102/102 101/101/101
f 88/88/88 89/89/89 103/103/103 102/102/102
f 93/93/94 94/94/93 105/105/104 104/104/105
f 94/94/93 95/198/95 106/197/106 105/105/104
f 95/95/95 96/96/96 107/107/107 106/106/106
f 96/96/96 97/97/97 108/108/108 107/107/107
f 97/97/97 98/98/98 109/109/109 108/108/108
f 98/98/98 99/99/99 110/110/110 109/109/109
f 99/99/99 100/100/100 111/111/111 110/110/110
f 100/100/100 101/101/101 112/112/112 111/111/111
f 101/101/101 102/102/102 113/113/113 112/112/112
f 104/104/105 105/105/104 115/115/114 114/114/115
f 105/105/104 106/197/106 116/196/116 115/115/114
f 106/106/106 107/107/107 117/117/117 116/116/116
f 107/107/107 108/108/108 118/118/118 117/117/117
f 108/108/108 109/109/109 119/119/119 118/118/118
f 109/109/109 110/110/110 120/120/120 119/119/119
f 110/110/110 111/111/111 121/121/121 120/120/120
f 111/111/111 112/112/112 122/122/122 121/121/121
f 112/112/112 113/113/113 123/123/123 122/122/122
f 114/114/115 115/115/114 125/125/124 124/124/125
f 115/115/114 116/196/116 126/195/126 125/125/124
f 116/116/116 117/117/117 127/127/127 126/126/126
f 117/117/117 118/118/118 128/128/128 127/127/127
f 118/118/118 119/119/119 129/129/129 128/128/128
f 119/119/119 120/120/120 130/130/130 129/129/129
f 120/120/120 121/121/121 131/131/131 130/130/130
f 121/121/121 122/122/122 132/132/132 131/131/131
f 122/122/122 123/123/123 133/133/133 132/132/132
f 124/124/125 125/125/124 135/135/134 134/134/135
f 125/125/124 126/195/126 136/194/136 135/135/134
f 126/126/126 127/127/127 137/137/137 136/136/136
f 127/127/127 128/128/128 138/138/138 137/137/137
f 128/128/128 129/129/129 139/139/139 138/138/138
f 129/129/129 130/130/130 140/140/140 139/139/139
f 130/130/130 131/131/131 141/141/141 140/140/140
f 131/131/131 132/132/132 142/142/142 141/141/141
f 132/132/132 133/133/133 143/143/143 142/142/142
f 134/134/135 135/135/134 145/145/144 144/144/145
f 135/135/134 136/194/136 146/193/146 145/145/144
f 136/136/136 137/137/137 147/147/147 146/146/146
f 137/137/137 138/138/138 148/148/148 147/147/147
f 138/138/138 139/139/139 149/149/149 148/148/148
f 144/144/145 145/145/144 151/151/150 150/150/151
f 145/145/144 146/193/146 152/192/152 151/151/150
f 146/146/146 147/147/147 153/153/153 152/152/152
f 147/147/147 148/148/148 154/154/154 153/153/153
f 150/150/151 151/151/150 156/156/155 155/155/156
f 151/151/150 152/192/152 157/191/157 156/156/155
f 152/152/152 153/153/153 158/158/158 157/157/157
f 153/153/153 154/154/154 159/159/159 158/158/158
f 155/155/156 156/156/155 161/161/160 160/160/161
f 156/156/155 157/191/157 162/190/162 161/161/160
f 157/157/157 158/158/158 163/163/163 162/162/162
f 158/158/158 159/159/159 164/164/164 163/163/163
f 160/160/161 161/161/160 166/166/165 165/165/166
f 161/161/160 162/190/162 167/189/167 166/166/165
f 162/162/162 163/163/163 168/168/168 167/167/167
f 165/165/166 166/166/165 170/170/169 169/169/170
f 166/166/165 167/189/167 171/187/171 170/170/169
f 167/167/167 168/168/168 172/172/172 171/171/171
f 169/169/170 170/170/169 174/174/173 173/173/174
f 170/170/169 171/187/171 175/188/175 174/174/173
f 171/171/171 172/172/172 176/176/176 175/175/175
f 173/173/174 174/174/173 178/178/177 177/177/178
f 174/174/173 175/188/175 179/179/179 178/178/177
f 177/177/178 178/178/177 181/181/180 180/180/181
f 178/178/177 179/179/179 182/182/182 181/181/180
f 180/180/181 181/181/180 184/184/183 183/183/184
f 183/183/184 184/184/183 186/186/185 185/185/186
