# This file uses centimeters as units for non-parametric coordinates.

mtllib Finsh_Line.mtl
g default
v -4.000000 -1.250000 0.025000
v 4.000000 -1.250000 0.025000
v -4.000000 1.250000 0.025000
v 4.000000 1.250000 0.025000
v -4.000000 1.250000 -0.025000
v 4.000000 1.250000 -0.025000
v -4.000000 -1.250000 -0.025000
v 4.000000 -1.250000 -0.025000
vt 0.319514 0.584747
vt 0.648993 0.584747
vt 0.648993 0.914227
vt 0.319514 0.914227
vt 0.320694 0.586469
vt 0.650173 0.586469
vt 0.650173 0.915949
vt 0.320694 0.915949
vt 0.320539 0.585414
vt 0.650019 0.585414
vt 0.650019 0.914894
vt 0.320539 0.914894
vt 0.321145 0.585393
vt 0.650625 0.585393
vt 0.650625 0.914873
vt 0.321145 0.914873
vt 0.068589 0.104449
vt 0.909407 0.104449
vt 0.909407 0.477703
vt 0.068589 0.477703
vt 0.067795 0.104073
vt 0.908613 0.104073
vt 0.908613 0.477328
vt 0.067795 0.477328
vn 0.000000 0.000000 1.000000
vn 0.000000 0.000000 1.000000
vn 0.000000 0.000000 1.000000
vn 0.000000 0.000000 1.000000
vn 0.000000 1.000000 0.000000
vn 0.000000 1.000000 0.000000
vn 0.000000 1.000000 0.000000
vn 0.000000 1.000000 0.000000
vn 0.000000 0.000000 -1.000000
vn 0.000000 0.000000 -1.000000
vn 0.000000 0.000000 -1.000000
vn 0.000000 0.000000 -1.000000
vn 0.000000 -1.000000 0.000000
vn 0.000000 -1.000000 0.000000
vn 0.000000 -1.000000 0.000000
vn 0.000000 -1.000000 0.000000
vn 1.000000 0.000000 0.000000
vn 1.000000 0.000000 0.000000
vn 1.000000 0.000000 0.000000
vn 1.000000 0.000000 0.000000
vn -1.000000 0.000000 0.000000
vn -1.000000 0.000000 0.000000
vn -1.000000 0.000000 0.000000
vn -1.000000 0.000000 0.000000
s off
g pCube1
usemtl lambert2SG
f 1/17/1 2/18/2 4/19/3 3/20/4
f 3/9/5 4/10/6 6/11/7 5/12/8
f 5/21/9 6/22/10 8/23/11 7/24/12
f 7/13/13 8/14/14 2/15/15 1/16/16
f 2/1/17 8/2/18 6/3/19 4/4/20
f 7/5/21 1/6/22 3/7/23 5/8/24
