# This file uses centimeters as units for non-parametric coordinates.

mtllib Standalone Leaderboard.mtl
g default
v -1.895000 -0.599586 0.100000
v 1.895000 -0.599586 0.100000
v -1.895000 1.680413 0.100000
v 1.895000 1.680413 0.100000
v -1.895000 1.680413 -0.100000
v 1.895000 1.680413 -0.100000
v -1.895000 -0.599586 -0.100000
v 1.895000 -0.599586 -0.100000
vt 0.444414 0.403247
vt 0.961147 0.403247
vt 0.961147 0.919980
vt 0.444414 0.919980
vt 0.528254 0.017246
vt 0.875377 0.017246
vt 0.875377 0.364369
vt 0.528254 0.364369
vt 0.530632 0.019310
vt 0.877755 0.019310
vt 0.877755 0.366433
vt 0.530632 0.366433
vt 0.530260 0.015475
vt 0.877382 0.015475
vt 0.877382 0.362598
vt 0.530260 0.362598
vt 0.530125 0.364662
vt 0.530125 0.017539
vt 0.877248 0.017539
vt 0.877248 0.364662
vt 0.528254 0.017539
vt 0.875377 0.017539
vt 0.875377 0.364662
vt 0.528254 0.364662
vn 0.000000 0.000000 1.000000
vn 0.000000 0.000000 1.000000
vn 0.000000 0.000000 1.000000
vn 0.000000 0.000000 1.000000
vn 0.000000 1.000000 0.000000
vn 0.000000 1.000000 0.000000
vn 0.000000 1.000000 0.000000
vn 0.000000 1.000000 0.000000
vn 0.000000 0.000000 -1.000000
vn 0.000000 0.000000 -1.000000
vn 0.000000 0.000000 -1.000000
vn 0.000000 0.000000 -1.000000
vn 0.000000 -1.000000 0.000000
vn 0.000000 -1.000000 0.000000
vn 0.000000 -1.000000 0.000000
vn 0.000000 -1.000000 0.000000
vn 1.000000 0.000000 0.000000
vn 1.000000 0.000000 0.000000
vn 1.000000 0.000000 0.000000
vn 1.000000 0.000000 0.000000
vn -1.000000 0.000000 0.000000
vn -1.000000 0.000000 0.000000
vn -1.000000 0.000000 0.000000
vn -1.000000 0.000000 0.000000
s off
g polySurface7 pasted__pasted__pCylinder2
usemtl lambert3SG
f 1/1/1 2/2/2 4/3/3 3/4/4
f 3/5/5 4/6/6 6/7/7 5/8/8
f 5/9/9 6/10/10 8/11/11 7/12/12
f 7/13/13 8/14/14 2/15/15 1/16/16
f 2/17/17 8/18/18 6/19/19 4/20/20
f 7/21/21 1/22/22 3/23/23 5/24/24
