# This file uses centimeters as units for non-parametric coordinates.

mtllib tunnelProto.mtl
g default
v 8.575458 2.495350 -11.866818
v 7.294720 4.714518 -11.866818
v 5.299925 6.475659 -11.866818
v 2.786335 7.606381 -11.866818
v 0.000000 7.996001 -11.866818
v -2.786335 7.606381 -11.866818
v -5.299923 6.475659 -11.866818
v -7.294717 4.714515 -11.866818
v -8.575454 2.495347 -11.866818
v -9.016766 -0.000000 -11.866818
v 9.016765 0.035382 -11.866818
v 10.436901 3.780101 -11.866818
v 8.878159 6.480975 -11.866818
v 6.450359 8.624401 -11.866818
v 3.391154 10.000565 -11.866818
v 0.000000 10.474759 -11.866818
v -3.391154 10.000565 -11.866818
v -6.450358 8.624401 -11.866818
v -8.878155 6.480975 -11.866818
v -10.436897 3.780099 -11.866818
v -10.974003 -0.000000 -11.866818
v 10.974001 -0.000000 -11.866818
v 10.436901 3.780101 11.866818
v 8.878159 6.480975 11.866818
v 6.450359 8.624401 11.866818
v 3.391154 10.000565 11.866818
v 0.000000 10.474759 11.866818
v -3.391154 10.000565 11.866818
v -6.450358 8.624401 11.866818
v -8.878155 6.480975 11.866818
v -10.436897 3.780099 11.866818
v -10.974003 0.035289 11.866818
v 10.974001 -0.000000 11.866818
v 8.575458 2.495350 11.866818
v 7.294720 4.714518 11.866818
v 5.299925 6.475659 11.866818
v 2.786335 7.606381 11.866818
v 0.000000 7.996001 11.866818
v -2.786335 7.606381 11.866818
v -5.299923 6.475659 11.866818
v -7.294717 4.714515 11.866818
v -8.575454 2.495347 11.866818
v -9.016766 0.004285 11.867001
v 9.016765 -0.000000 11.866818
vt 0.095377 0.816486
vt 0.123004 0.816486
vt 0.123004 0.967935
vt 0.095377 0.967935
vt 0.144929 0.816486
vt 0.144929 0.967935
vt 0.057071 0.816486
vt 0.057071 0.967935
vt 0.159006 0.816486
vt 0.159006 0.967935
vt 0.246931 0.816486
vt 0.274558 0.816486
vt 0.274558 0.967935
vt 0.246931 0.967935
vt 0.312864 0.816486
vt 0.312864 0.967935
vt 0.225005 0.816486
vt 0.225005 0.967935
vt 0.210928 0.816486
vt 0.210928 0.967935
vt 0.376926 0.514432
vt 0.455541 0.514432
vt 0.455541 0.987593
vt 0.376926 0.987593
vt 0.526461 0.514432
vt 0.526461 0.987593
vt 0.582744 0.514432
vt 0.582744 0.987593
vt 0.618880 0.514432
vt 0.618880 0.987593
vt 0.831876 0.514666
vt 0.902797 0.514666
vt 0.902797 0.987827
vt 0.831876 0.987827
vt 0.981413 0.514666
vt 0.981413 0.987827
vt 0.775594 0.514666
vt 0.775594 0.987827
vt 0.739458 0.514666
vt 0.739458 0.987827
vt 0.262612 0.650816
vt 0.242567 0.658618
vt 0.226611 0.648972
vt 0.251007 0.639477
vt 0.226659 0.670770
vt 0.207249 0.663762
vt 0.284833 0.648128
vt 0.284834 0.636205
vt 0.216445 0.686082
vt 0.194818 0.682398
vt 0.212925 0.703056
vt 0.190535 0.703056
vt 0.216445 0.720030
vt 0.194818 0.723715
vt 0.226659 0.735343
vt 0.207249 0.742351
vt 0.242567 0.747494
vt 0.226611 0.757140
vt 0.262613 0.755296
vt 0.251007 0.766636
vt 0.284833 0.757985
vt 0.284834 0.769908
vt 0.127977 0.639477
vt 0.152374 0.648972
vt 0.136417 0.658618
vt 0.116372 0.650816
vt 0.171735 0.663762
vt 0.152326 0.670770
vt 0.094150 0.636205
vt 0.094151 0.648128
vt 0.184166 0.682398
vt 0.162539 0.686083
vt 0.188449 0.703056
vt 0.166059 0.703056
vt 0.184166 0.723715
vt 0.162539 0.720030
vt 0.171735 0.742351
vt 0.152326 0.735343
vt 0.152374 0.757141
vt 0.136417 0.747494
vt 0.127977 0.766636
vt 0.116372 0.755297
vt 0.094150 0.769908
vt 0.094151 0.757985
vt 0.208205 0.967935
vt 0.184812 0.967935
vt 0.184812 0.816486
vt 0.208205 0.816486
vt 0.161418 0.967935
vt 0.161418 0.816486
vt 0.619565 0.514432
vt 0.679618 0.514432
vt 0.679618 0.987593
vt 0.619565 0.987593
vt 0.739670 0.514432
vt 0.739670 0.987593
vt 0.045206 0.608546
vt 0.045206 0.583466
vt 0.326521 0.583466
vt 0.326521 0.608546
vt 0.045207 0.538875
vt 0.045207 0.513795
vt 0.326521 0.513795
vt 0.326521 0.538875
vn 0.000000 -0.000000 -1.000000
vn 0.000000 -0.000000 -1.000000
vn 0.000000 -0.000000 -1.000000
vn 0.000000 0.000000 -1.000000
vn 0.000000 -0.000000 -1.000000
vn 0.000000 -0.000000 -1.000000
vn 0.000000 0.000000 -1.000000
vn 0.000000 0.000000 -1.000000
vn 0.000000 0.000000 -1.000000
vn 0.000000 0.000000 -1.000000
vn 0.000000 0.000000 -1.000000
vn 0.000000 0.000000 -1.000000
vn 0.000000 0.000000 -1.000000
vn 0.000000 0.000000 -1.000000
vn 0.000000 0.000000 -1.000000
vn 0.000000 0.000000 -1.000000
vn 0.000000 0.000000 -1.000000
vn 0.000000 0.000000 -1.000000
vn 0.000000 -0.000000 -1.000000
vn 0.000000 -0.000000 -1.000000
vn 0.000000 -0.000000 -1.000000
vn 0.000000 -0.000000 -1.000000
vn 0.951485 0.307695 -0.000000
vn 0.772156 0.635433 -0.000000
vn 0.772156 0.635433 -0.000000
vn 0.951485 0.307695 -0.000000
vn 0.539914 0.841720 -0.000000
vn 0.539914 0.841720 -0.000000
vn 0.275740 0.961232 -0.000000
vn 0.275740 0.961232 -0.000000
vn 0.000000 1.000000 -0.000000
vn 0.000000 1.000000 -0.000000
vn -0.275740 0.961232 -0.000000
vn -0.275740 0.961232 -0.000000
vn -0.539914 0.841720 -0.000000
vn -0.539914 0.841720 -0.000000
vn -0.772156 0.635433 -0.000000
vn -0.772156 0.635433 -0.000000
vn -0.951239 0.308456 -0.000059
vn -0.951239 0.308456 -0.000059
vn -0.989964 0.141321 -0.000105
vn -0.989964 0.141321 -0.000105
vn 0.990056 0.140673 -0.000000
vn 0.990056 0.140673 -0.000000
vn 0.000000 0.000000 1.000000
vn 0.000000 -0.000000 1.000000
vn 0.000000 0.000000 1.000000
vn 0.000000 -0.000000 1.000000
vn 0.000000 -0.000000 1.000000
vn 0.000000 -0.000000 1.000000
vn 0.000000 0.000000 1.000000
vn 0.000000 0.000000 1.000000
vn 0.000000 0.000000 1.000000
vn 0.000000 0.000000 1.000000
vn 0.000000 0.000000 1.000000
vn 0.000000 0.000000 1.000000
vn 0.000000 -0.000000 1.000000
vn 0.000000 -0.000000 1.000000
vn 0.000000 -0.000000 1.000000
vn 0.000000 0.000000 1.000000
vn -0.000011 0.000011 1.000000
vn -0.000024 0.000023 1.000000
vn -0.000036 0.000035 1.000000
vn -0.000036 0.000035 1.000000
vn 0.000000 -0.000000 1.000000
vn 0.000000 -0.000000 1.000000
vn 0.984693 -0.174296 0.000016
vn 0.984693 -0.174296 0.000016
vn 0.984693 -0.174296 0.000016
vn 0.984693 -0.174296 0.000016
vn 0.866110 -0.499854 0.000000
vn 0.866110 -0.499854 0.000000
vn 0.866110 -0.499854 0.000000
vn 0.866110 -0.499854 0.000000
vn 0.661840 -0.749646 0.000000
vn 0.661840 -0.749646 0.000000
vn 0.661840 -0.749646 0.000000
vn 0.661840 -0.749646 0.000000
vn 0.410246 -0.911975 0.000000
vn 0.410246 -0.911975 0.000000
vn 0.410246 -0.911975 0.000000
vn 0.410246 -0.911975 0.000000
vn 0.138485 -0.990364 0.000000
vn 0.138485 -0.990364 0.000000
vn 0.138485 -0.990364 0.000000
vn 0.138485 -0.990364 0.000000
vn -0.138485 -0.990364 -0.000000
vn -0.138485 -0.990364 -0.000000
vn -0.138485 -0.990364 -0.000000
vn -0.138485 -0.990364 -0.000000
vn -0.410246 -0.911975 -0.000000
vn -0.410246 -0.911975 -0.000000
vn -0.410246 -0.911975 -0.000000
vn -0.410246 -0.911975 -0.000000
vn -0.661839 -0.749646 0.000000
vn -0.661839 -0.749646 0.000000
vn -0.661839 -0.749646 0.000000
vn -0.661839 -0.749646 0.000000
vn -0.866110 -0.499854 0.000000
vn -0.866110 -0.499854 0.000000
vn -0.866110 -0.499854 0.000000
vn -0.866110 -0.499854 0.000000
vn -0.984505 -0.175355 -0.000131
vn -0.984505 -0.175355 -0.000131
vn -0.984505 -0.175355 -0.000131
vn -0.984505 -0.175355 -0.000131
vn -0.007920 -0.999968 0.000834
vn -0.007920 -0.999968 0.000834
vn -0.007920 -0.999968 0.000834
vn -0.007920 -0.999968 0.000834
vn -0.009038 -0.999959 -0.000745
vn -0.009038 -0.999959 -0.000745
vn -0.009038 -0.999959 -0.000745
vn -0.009038 -0.999959 -0.000745
s 1
g pCylinder1
usemtl lambert2SG
f 1/41/1 2/42/2 13/43/3 12/44/4
f 2/42/2 3/45/5 14/46/6 13/43/3
f 3/45/5 4/49/7 15/50/8 14/46/6
f 4/49/7 5/51/9 16/52/10 15/50/8
f 5/51/9 6/53/11 17/54/12 16/52/10
f 6/53/11 7/55/13 18/56/14 17/54/12
f 7/55/13 8/57/15 19/58/16 18/56/14
f 8/57/15 9/59/17 20/60/18 19/58/16
f 9/59/17 10/61/19 21/62/20 20/60/18
f 11/47/21 1/41/1 12/44/4 22/48/22
s 2
f 12/1/23 13/2/24 24/3/25 23/4/26
f 13/2/24 14/5/27 25/6/28 24/3/25
f 14/5/27 15/9/29 26/10/30 25/6/28
f 15/85/29 16/86/31 27/87/32 26/88/30
f 16/86/31 17/89/33 28/90/34 27/87/32
f 17/19/33 18/17/35 29/18/36 28/20/34
f 18/17/35 19/11/37 30/14/38 29/18/36
f 19/11/37 20/12/39 31/13/40 30/14/38
f 20/12/39 21/15/41 32/16/42 31/13/40
f 22/7/43 12/1/23 23/4/26 33/8/44
s 3
f 23/63/45 24/64/46 35/65/47 34/66/48
f 24/64/46 25/67/49 36/68/50 35/65/47
f 25/67/49 26/71/51 37/72/52 36/68/50
f 26/71/51 27/73/53 38/74/54 37/72/52
f 27/73/53 28/75/55 39/76/56 38/74/54
f 28/75/55 29/77/57 40/78/58 39/76/56
f 29/77/57 30/79/59 41/80/60 40/78/58
f 30/79/59 31/81/61 42/82/62 41/80/60
f 31/81/61 32/83/63 43/84/64 42/82/62
f 33/69/65 23/63/45 34/66/48 44/70/66
s off
f 10/21/67 9/22/68 42/23/69 43/24/70
f 9/22/71 8/25/72 41/26/73 42/23/74
f 8/25/75 7/27/76 40/28/77 41/26/78
f 7/27/79 6/29/80 39/30/81 40/28/82
f 6/91/83 5/92/84 38/93/85 39/94/86
f 5/92/87 4/95/88 37/96/89 38/93/90
f 4/39/91 3/37/92 36/38/93 37/40/94
f 3/37/95 2/31/96 35/34/97 36/38/98
f 2/31/99 1/32/100 34/33/101 35/34/102
f 1/32/103 11/35/104 44/36/105 34/33/106
f 21/97/107 10/98/108 43/99/109 32/100/110
f 11/101/111 22/102/112 33/103/113 44/104/114
g default
v -10.974004 0.035289 11.866818
v -8.776022 0.000000 11.867000
v -6.582017 0.000000 11.867000
v -4.388011 0.000000 11.867000
v -2.194005 0.000000 11.867000
v 0.000000 0.000000 11.867000
v 2.194006 0.000000 11.867000
v 4.388011 0.000000 11.867000
v 6.582017 0.000000 11.867000
v 8.776023 0.000000 11.867000
v 10.970027 0.000000 11.867000
v -10.970027 -0.000000 9.562267
v -8.776022 -0.000000 9.562267
v -6.582017 -0.000000 9.562267
v -4.388011 -0.000000 9.562267
v -2.194005 -0.000000 9.562267
v 0.000000 -0.000000 9.562267
v 2.194006 -0.000000 9.562267
v 4.388011 -0.000000 9.562267
v 6.582017 -0.000000 9.562267
v 8.776023 -0.000000 9.562267
v 10.970027 -0.000000 9.562267
v -10.970027 -0.000000 7.171701
v -8.776022 -0.000000 7.171701
v -6.582017 -0.000000 7.171701
v -4.388011 -0.000000 7.171701
v -2.194005 -0.000000 7.171701
v 0.000000 -0.000000 7.171701
v 2.194006 -0.000000 7.171701
v 4.388011 -0.000000 7.171701
v 6.582017 -0.000000 7.171701
v 8.776023 -0.000000 7.171701
v 10.970027 -0.000000 7.171701
v -10.970027 -0.000000 4.781133
v -8.776022 -0.000000 4.781133
v -6.582017 -0.000000 4.781133
v -4.388011 -0.000000 4.781133
v -2.194005 -0.000000 4.781133
v 0.000000 -0.000000 4.781133
v 2.194006 -0.000000 4.781133
v 4.388011 -0.000000 4.781133
v 6.582017 -0.000000 4.781133
v 8.776023 -0.000000 4.781133
v 10.970027 -0.000000 4.781133
v -10.970027 -0.000000 2.390567
v -8.776022 -0.000000 2.390567
v -6.582017 -0.000000 2.390567
v -4.388011 -0.000000 2.390567
v -2.194005 -0.000000 2.390567
v 0.000000 -0.000000 2.390567
v 2.194006 -0.000000 2.390567
v 4.388011 -0.000000 2.390567
v 6.582017 -0.000000 2.390567
v 8.776023 -0.000000 2.390567
v 10.970027 -0.000000 2.390567
v -10.970027 0.000000 0.000000
v -8.776022 0.000000 0.000000
v -6.582017 0.000000 0.000000
v -4.388011 0.000000 0.000000
v -2.194005 0.000000 0.000000
v 0.000000 0.000000 0.000000
v 2.194006 0.000000 0.000000
v 4.388011 0.000000 0.000000
v 6.582017 0.000000 0.000000
v 8.776023 0.000000 0.000000
v 10.970027 0.000000 0.000000
v -10.970027 0.000000 -2.390567
v -8.776022 0.000000 -2.390567
v -6.582017 0.000000 -2.390567
v -4.388011 0.000000 -2.390567
v -2.194005 0.000000 -2.390567
v 0.000000 0.000000 -2.390567
v 2.194006 0.000000 -2.390567
v 4.388011 0.000000 -2.390567
v 6.582017 0.000000 -2.390567
v 8.776023 0.000000 -2.390567
v 10.970027 0.000000 -2.390567
v -10.970027 0.000000 -4.781133
v -8.776022 0.000000 -4.781133
v -6.582017 0.000000 -4.781133
v -4.388011 0.000000 -4.781133
v -2.194005 0.000000 -4.781133
v 0.000000 0.000000 -4.781133
v 2.194006 0.000000 -4.781133
v 4.388011 0.000000 -4.781133
v 6.582017 0.000000 -4.781133
v 8.776023 0.000000 -4.781133
v 10.970027 0.000000 -4.781133
v -10.970027 0.000000 -7.171701
v -8.776022 0.000000 -7.171701
v -6.582017 0.000000 -7.171701
v -4.388011 0.000000 -7.171701
v -2.194005 0.000000 -7.171701
v 0.000000 0.000000 -7.171701
v 2.194006 0.000000 -7.171701
v 4.388011 0.000000 -7.171701
v 6.582017 0.000000 -7.171701
v 8.776023 0.000000 -7.171701
v 10.970027 0.000000 -7.171701
v -10.970027 0.000000 -9.562268
v -8.776022 0.000000 -9.562268
v -6.582017 0.000000 -9.562268
v -4.388011 0.000000 -9.562268
v -2.194005 0.000000 -9.562268
v 0.000000 0.000000 -9.562268
v 2.194006 0.000000 -9.562268
v 4.388011 0.000000 -9.562268
v 6.582017 0.000000 -9.562268
v 8.776023 0.000000 -9.562268
v 10.970027 0.000000 -9.562268
v -10.970027 0.000000 -11.867000
v -8.776022 0.000000 -11.867000
v -6.582017 0.000000 -11.867000
v -4.388011 0.000000 -11.867000
v -2.194005 0.000000 -11.867000
v 0.000000 0.000000 -11.867000
v 2.194006 0.000000 -11.867000
v 4.388011 0.000000 -11.867000
v 6.582017 0.000000 -11.867000
v 8.776023 0.000000 -11.867000
v 10.970027 0.000000 -11.866818
vt 0.039472 0.034283
vt 0.082666 0.034283
vt 0.082666 0.077478
vt 0.039472 0.077478
vt 0.125861 0.034283
vt 0.125861 0.077478
vt 0.082666 0.120672
vt 0.039472 0.120672
vt 0.169056 0.034283
vt 0.169056 0.077478
vt 0.125861 0.120672
vt 0.082666 0.163866
vt 0.039472 0.163866
vt 0.212250 0.034283
vt 0.212250 0.077478
vt 0.169056 0.120672
vt 0.125861 0.163866
vt 0.082666 0.207062
vt 0.039472 0.207062
vt 0.255445 0.034283
vt 0.255445 0.077478
vt 0.212250 0.120672
vt 0.169056 0.163866
vt 0.125861 0.207062
vt 0.082666 0.250256
vt 0.039472 0.250256
vt 0.298639 0.034283
vt 0.298639 0.077478
vt 0.255445 0.120672
vt 0.212250 0.163866
vt 0.169056 0.207062
vt 0.125861 0.250256
vt 0.082666 0.293450
vt 0.039472 0.293450
vt 0.341833 0.034283
vt 0.341833 0.077478
vt 0.298639 0.120672
vt 0.255445 0.163866
vt 0.212250 0.207062
vt 0.169056 0.250256
vt 0.125861 0.293450
vt 0.082666 0.336645
vt 0.039472 0.336645
vt 0.385028 0.034283
vt 0.385028 0.077478
vt 0.341833 0.120672
vt 0.298639 0.163866
vt 0.255445 0.207062
vt 0.212250 0.250256
vt 0.169056 0.293450
vt 0.125861 0.336645
vt 0.082666 0.379839
vt 0.039472 0.379839
vt 0.428223 0.034283
vt 0.428223 0.077478
vt 0.385028 0.120672
vt 0.341833 0.163866
vt 0.298639 0.207062
vt 0.255445 0.250256
vt 0.212250 0.293450
vt 0.169056 0.336645
vt 0.125861 0.379839
vt 0.082666 0.423033
vt 0.039472 0.423033
vt 0.471418 0.034283
vt 0.471418 0.077478
vt 0.428223 0.120672
vt 0.385028 0.163866
vt 0.341833 0.207062
vt 0.298639 0.250256
vt 0.255445 0.293450
vt 0.212250 0.336645
vt 0.169056 0.379839
vt 0.125861 0.423033
vt 0.082666 0.466229
vt 0.039472 0.466229
vt 0.471418 0.120672
vt 0.428223 0.163866
vt 0.385028 0.207062
vt 0.341833 0.250256
vt 0.298639 0.293450
vt 0.255445 0.336645
vt 0.212250 0.379839
vt 0.169056 0.423033
vt 0.125861 0.466229
vt 0.471418 0.163866
vt 0.428223 0.207062
vt 0.385028 0.250256
vt 0.341833 0.293450
vt 0.298639 0.336645
vt 0.255445 0.379839
vt 0.212250 0.423033
vt 0.169056 0.466229
vt 0.471418 0.207062
vt 0.428223 0.250256
vt 0.385028 0.293450
vt 0.341833 0.336645
vt 0.298639 0.379839
vt 0.255445 0.423033
vt 0.212250 0.466229
vt 0.471418 0.250256
vt 0.428223 0.293450
vt 0.385028 0.336645
vt 0.341833 0.379839
vt 0.298639 0.423033
vt 0.255445 0.466229
vt 0.471418 0.293450
vt 0.428223 0.336645
vt 0.385028 0.379839
vt 0.341833 0.423033
vt 0.298639 0.466229
vt 0.471418 0.336645
vt 0.428223 0.379839
vt 0.385028 0.423033
vt 0.341833 0.466229
vt 0.471418 0.379839
vt 0.428223 0.423033
vt 0.385028 0.466229
vt 0.471418 0.423033
vt 0.428223 0.466229
vt 0.471418 0.466229
vn 0.008035 0.999938 -0.007649
vn 0.004019 0.999985 -0.003826
vn 0.001973 0.999996 -0.001879
vn 0.003948 0.999985 -0.003758
vn 0.000000 1.000000 -0.000000
vn 0.000000 1.000000 -0.000000
vn 0.000000 1.000000 -0.000000
vn 0.000000 1.000000 -0.000000
vn 0.000000 1.000000 -0.000000
vn 0.000000 1.000000 -0.000000
vn 0.000000 1.000000 -0.000000
vn 0.000000 1.000000 -0.000000
vn 0.000000 1.000000 -0.000000
vn 0.000000 1.000000 -0.000000
vn 0.000000 1.000000 -0.000000
vn 0.000000 1.000000 -0.000000
vn 0.000000 1.000000 -0.000000
vn 0.000000 1.000000 -0.000000
vn 0.000000 1.000000 -0.000000
vn 0.000000 1.000000 -0.000000
vn 0.000000 1.000000 -0.000000
vn 0.000000 1.000000 -0.000000
vn 0.000000 1.000000 0.000000
vn 0.000000 1.000000 0.000000
vn 0.000000 1.000000 0.000000
vn 0.000000 1.000000 0.000000
vn 0.000000 1.000000 0.000000
vn 0.000000 1.000000 0.000000
vn 0.000000 1.000000 0.000000
vn 0.000000 1.000000 0.000000
vn 0.000000 1.000000 0.000000
vn 0.000000 1.000000 0.000000
vn 0.000000 1.000000 0.000000
vn 0.000000 1.000000 0.000000
vn 0.000000 1.000000 0.000000
vn 0.000000 1.000000 0.000000
vn 0.000000 1.000000 0.000000
vn 0.000000 1.000000 0.000000
vn 0.000000 1.000000 0.000000
vn 0.000000 1.000000 0.000000
vn 0.000000 1.000000 0.000000
vn 0.000000 1.000000 0.000000
vn 0.000000 1.000000 0.000000
vn 0.000000 1.000000 0.000000
vn 0.000000 1.000000 0.000000
vn 0.000000 1.000000 0.000000
vn 0.000000 1.000000 0.000000
vn 0.000000 1.000000 0.000000
vn 0.000000 1.000000 0.000000
vn 0.000000 1.000000 0.000000
vn 0.000000 1.000000 0.000000
vn 0.000000 1.000000 0.000000
vn 0.000000 1.000000 0.000000
vn 0.000000 1.000000 0.000000
vn 0.000000 1.000000 0.000000
vn 0.000000 1.000000 0.000000
vn 0.000000 1.000000 0.000000
vn 0.000000 1.000000 0.000000
vn 0.000000 1.000000 0.000000
vn 0.000000 1.000000 0.000000
vn 0.000000 1.000000 0.000000
vn 0.000000 1.000000 0.000000
vn 0.000000 1.000000 0.000000
vn 0.000000 1.000000 0.000000
vn 0.000000 1.000000 0.000000
vn 0.000000 1.000000 0.000000
vn 0.000000 1.000000 0.000000
vn 0.000000 1.000000 0.000000
vn 0.000000 1.000000 0.000000
vn 0.000000 1.000000 0.000000
vn 0.000000 1.000000 0.000000
vn 0.000000 1.000000 0.000000
vn 0.000000 1.000000 0.000000
vn 0.000000 1.000000 0.000000
vn 0.000000 1.000000 0.000000
vn 0.000000 1.000000 0.000000
vn 0.000000 1.000000 0.000000
vn 0.000000 1.000000 0.000000
vn 0.000000 1.000000 0.000000
vn 0.000000 1.000000 0.000000
vn 0.000000 1.000000 0.000000
vn 0.000000 1.000000 0.000000
vn 0.000000 1.000000 0.000000
vn 0.000000 1.000000 0.000000
vn 0.000000 1.000000 0.000000
vn 0.000000 1.000000 0.000000
vn 0.000000 1.000000 0.000000
vn 0.000000 1.000000 0.000000
vn 0.000000 1.000000 0.000000
vn 0.000000 1.000000 0.000000
vn 0.000000 1.000000 0.000000
vn 0.000000 1.000000 0.000000
vn 0.000000 1.000000 0.000000
vn 0.000000 1.000000 0.000000
vn 0.000000 1.000000 0.000000
vn 0.000000 1.000000 0.000000
vn 0.000000 1.000000 0.000000
vn 0.000000 1.000000 0.000000
vn 0.000000 1.000000 0.000000
vn 0.000000 1.000000 -0.000000
vn 0.000000 1.000000 -0.000000
vn 0.000000 1.000000 -0.000000
vn 0.000000 1.000000 -0.000000
vn 0.000000 1.000000 -0.000000
vn 0.000000 1.000000 -0.000000
vn 0.000000 1.000000 -0.000000
vn 0.000000 1.000000 -0.000000
vn 0.000000 1.000000 -0.000000
vn -0.000000 1.000000 -0.000000
vn -0.000000 1.000000 -0.000000
vn 0.000000 1.000000 -0.000000
vn 0.000000 1.000000 -0.000000
vn 0.000000 1.000000 -0.000000
vn 0.000000 1.000000 -0.000000
vn 0.000000 1.000000 -0.000000
vn 0.000000 1.000000 -0.000000
vn 0.000000 1.000000 -0.000000
vn 0.000000 1.000000 -0.000000
vn 0.000000 1.000000 -0.000000
vn -0.000000 1.000000 -0.000000
vn -0.000000 1.000000 -0.000000
s 1
g pPlane1
usemtl lambert2SG
f 45/105/115 46/106/116 57/107/117 56/108/118
f 46/106/116 47/109/119 58/110/120 57/107/117
f 47/109/119 48/113/121 59/114/122 58/110/120
f 48/113/121 49/118/123 60/119/124 59/114/122
f 49/118/123 50/124/125 61/125/126 60/119/124
f 50/124/125 51/131/127 62/132/128 61/125/126
f 51/131/127 52/139/129 63/140/130 62/132/128
f 52/139/129 53/148/131 64/149/132 63/140/130
f 53/148/131 54/158/133 65/159/134 64/149/132
f 54/158/133 55/169/135 66/170/136 65/159/134
f 56/108/118 57/107/117 68/111/137 67/112/138
f 57/107/117 58/110/120 69/115/139 68/111/137
f 58/110/120 59/114/122 70/120/140 69/115/139
f 59/114/122 60/119/124 71/126/141 70/120/140
f 60/119/124 61/125/126 72/133/142 71/126/141
f 61/125/126 62/132/128 73/141/143 72/133/142
f 62/132/128 63/140/130 74/150/144 73/141/143
f 63/140/130 64/149/132 75/160/145 74/150/144
f 64/149/132 65/159/134 76/171/146 75/160/145
f 65/159/134 66/170/136 77/181/147 76/171/146
f 67/112/138 68/111/137 79/116/148 78/117/149
f 68/111/137 69/115/139 80/121/150 79/116/148
f 69/115/139 70/120/140 81/127/151 80/121/150
f 70/120/140 71/126/141 82/134/152 81/127/151
f 71/126/141 72/133/142 83/142/153 82/134/152
f 72/133/142 73/141/143 84/151/154 83/142/153
f 73/141/143 74/150/144 85/161/155 84/151/154
f 74/150/144 75/160/145 86/172/156 85/161/155
f 75/160/145 76/171/146 87/182/157 86/172/156
f 76/171/146 77/181/147 88/190/158 87/182/157
f 78/117/149 79/116/148 90/122/159 89/123/160
f 79/116/148 80/121/150 91/128/161 90/122/159
f 80/121/150 81/127/151 92/135/162 91/128/161
f 81/127/151 82/134/152 93/143/163 92/135/162
f 82/134/152 83/142/153 94/152/164 93/143/163
f 83/142/153 84/151/154 95/162/165 94/152/164
f 84/151/154 85/161/155 96/173/166 95/162/165
f 85/161/155 86/172/156 97/183/167 96/173/166
f 86/172/156 87/182/157 98/191/168 97/183/167
f 87/182/157 88/190/158 99/198/169 98/191/168
f 89/123/160 90/122/159 101/129/170 100/130/171
f 90/122/159 91/128/161 102/136/172 101/129/170
f 91/128/161 92/135/162 103/144/173 102/136/172
f 92/135/162 93/143/163 104/153/174 103/144/173
f 93/143/163 94/152/164 105/163/175 104/153/174
f 94/152/164 95/162/165 106/174/176 105/163/175
f 95/162/165 96/173/166 107/184/177 106/174/176
f 96/173/166 97/183/167 108/192/178 107/184/177
f 97/183/167 98/191/168 109/199/179 108/192/178
f 98/191/168 99/198/169 110/205/180 109/199/179
f 100/130/171 101/129/170 112/137/181 111/138/182
f 101/129/170 102/136/172 113/145/183 112/137/181
f 102/136/172 103/144/173 114/154/184 113/145/183
f 103/144/173 104/153/174 115/164/185 114/154/184
f 104/153/174 105/163/175 116/175/186 115/164/185
f 105/163/175 106/174/176 117/185/187 116/175/186
f 106/174/176 107/184/177 118/193/188 117/185/187
f 107/184/177 108/192/178 119/200/189 118/193/188
f 108/192/178 109/199/179 120/206/190 119/200/189
f 109/199/179 110/205/180 121/211/191 120/206/190
f 111/138/182 112/137/181 123/146/192 122/147/193
f 112/137/181 113/145/183 124/155/194 123/146/192
f 113/145/183 114/154/184 125/165/195 124/155/194
f 114/154/184 115/164/185 126/176/196 125/165/195
f 115/164/185 116/175/186 127/186/197 126/176/196
f 116/175/186 117/185/187 128/194/198 127/186/197
f 117/185/187 118/193/188 129/201/199 128/194/198
f 118/193/188 119/200/189 130/207/200 129/201/199
f 119/200/189 120/206/190 131/212/201 130/207/200
f 120/206/190 121/211/191 132/216/202 131/212/201
f 122/147/193 123/146/192 134/156/203 133/157/204
f 123/146/192 124/155/194 135/166/205 134/156/203
f 124/155/194 125/165/195 136/177/206 135/166/205
f 125/165/195 126/176/196 137/187/207 136/177/206
f 126/176/196 127/186/197 138/195/208 137/187/207
f 127/186/197 128/194/198 139/202/209 138/195/208
f 128/194/198 129/201/199 140/208/210 139/202/209
f 129/201/199 130/207/200 141/213/211 140/208/210
f 130/207/200 131/212/201 142/217/212 141/213/211
f 131/212/201 132/216/202 143/220/213 142/217/212
f 133/157/204 134/156/203 145/167/214 144/168/215
f 134/156/203 135/166/205 146/178/216 145/167/214
f 135/166/205 136/177/206 147/188/217 146/178/216
f 136/177/206 137/187/207 148/196/218 147/188/217
f 137/187/207 138/195/208 149/203/219 148/196/218
f 138/195/208 139/202/209 150/209/220 149/203/219
f 139/202/209 140/208/210 151/214/221 150/209/220
f 140/208/210 141/213/211 152/218/222 151/214/221
f 141/213/211 142/217/212 153/221/223 152/218/222
f 142/217/212 143/220/213 154/223/224 153/221/223
f 144/168/215 145/167/214 156/179/225 155/180/226
f 145/167/214 146/178/216 157/189/227 156/179/225
f 146/178/216 147/188/217 158/197/228 157/189/227
f 147/188/217 148/196/218 159/204/229 158/197/228
f 148/196/218 149/203/219 160/210/230 159/204/229
f 149/203/219 150/209/220 161/215/231 160/210/230
f 150/209/220 151/214/221 162/219/232 161/215/231
f 151/214/221 152/218/222 163/222/233 162/219/232
f 152/218/222 153/221/223 164/224/234 163/222/233
f 153/221/223 154/223/224 165/225/235 164/224/234
